<?xml version="1.0" encoding="UTF-8"?>
<svg width="130px" height="130px" viewBox="0 0 130 130" version="1.1" xmlns="http://www.w3.org/2000/svg" xmlns:xlink="http://www.w3.org/1999/xlink">
    <title>E3A733A3-803A-4D8E-9E7D-AE7C5DB9E759</title>
    <defs>
        <linearGradient x1="-1.11022302e-14%" y1="50%" x2="100%" y2="50%" id="linearGradient-1">
            <stop stop-color="#69BE28" offset="0%"></stop>
            <stop stop-color="#9ECE31" offset="69.7244284%"></stop>
            <stop stop-color="#FFEA42" offset="100%"></stop>
        </linearGradient>
    </defs>
    <g id="IBA-Proton-Therapy" stroke="none" stroke-width="1" fill="none" fill-rule="evenodd">
        <g id="IBA-Campus---connect-detail-connected-clients" transform="translate(-655.000000, -1312.000000)">
            <rect fill="#FFFFFF" x="0" y="0" width="1440" height="2017"></rect>
            <g id="//-circles" transform="translate(680.000000, 780.000000)" stroke="url(#linearGradient-1)" stroke-width="4">
                <circle id="circle" transform="translate(900.000000, 900.000000) scale(-1, 1) translate(-900.000000, -900.000000) " cx="900" cy="900" r="898"></circle>
            </g>
            <g id="blocs-/--footer-green" transform="translate(0.000000, 1237.000000)">
                <rect id="bgd" fill="#69BE28" x="0" y="0" width="1440" height="780"></rect>
                <g id="logos-/-IBA" transform="translate(655.000000, 75.000000)">
                    <path d="M130.6,-0.6 L130.6,130.6 L-0.6,130.6 L-0.6,-0.6 L130.6,-0.6 Z" id="Fill-1" stroke="#FFFFFF" stroke-width="1.2" fill="#69BE28"></path>
                    <path d="M43.6127881,30.5503073 C45.5466236,28.8612293 48.2407074,28.7948463 49.6258848,30.4015603 C51.0135225,32.0095035 50.5718895,34.6795745 48.6368239,36.3674232 C46.7042186,38.0565012 44.0101348,38.1216548 42.6249574,36.5173995 C41.2348594,34.9119149 41.6801828,32.2369267 43.6127881,30.5503073" id="Fill-2" fill="#FFFFFF"></path>
                    <path d="M99.9653942,76.2600284 C100.330756,75.6048038 101.794665,71.5431489 99.9174174,68.9787991 C98.356325,66.8434799 93.8095973,68.1490118 92.5634297,68.8325106 C84.5512983,73.2371442 82.5633351,80.7322742 82.0269787,83.3605485 C81.3528427,86.6661749 82.5990102,89.9914704 88.6194879,87.0988936 C92.0959631,85.427026 96.875194,81.787026 99.9653942,76.2600284 M114.540511,83.9272624 C114.646306,83.929721 116.211089,84.7017305 116.211089,84.7017305 C116.211089,84.7017305 109.745287,90.9564823 103.074047,86.8628652 C99.9727753,84.9635745 99.2974091,81.5731253 98.9049832,82.1472151 C95.9058159,86.5346383 91.5989723,89.6657021 89.0549699,90.9441891 C87.7091582,91.6215414 80.1534218,94.118279 77.6696979,89.0854657 C76.9721886,87.6643783 74.7787861,80.6314704 82.3824993,70.7711395 C83.3789413,69.4729835 90.0415705,61.9040946 96.8124551,62.0811158 C102.733289,62.5113759 104.291921,67.5847565 104.291921,67.5847565 C104.291921,67.5847565 103.285637,73.4657967 103.257343,76.8759149 C103.141707,90.1979953 112.518103,85.1172388 114.540511,83.9272624" id="Fill-4" fill="#FFFFFF"></path>
                    <path d="M34.4381411,54.7716123 C35.237755,52.8501939 36.6180117,51.0578534 39.6983705,51.8900993 C42.2030073,52.5686809 41.5005772,53.3247092 41.5005772,53.3247092 C32.2779534,66.8287281 28.6329441,93.5970496 32.5867274,100.305418 C33.6397574,101.909674 33.0357413,101.356482 31.7354461,101.256908 C27.6992411,100.945891 27.2723703,97.2554894 27.2723703,97.2554894 C27.2723703,97.2554894 22.7736194,82.8946383 34.4381411,54.7716123" id="Fill-6" fill="#FFFFFF"></path>
                    <path d="M47.1291211,79.7619764 C48.2461202,76.5448605 51.3363205,72.7475083 52.2380389,71.6485012 C58.815786,63.6063262 67.5426492,64.5037258 69.6671619,65.3372009 C79.8800768,69.3423073 74.0724195,83.165948 71.134761,86.6424492 C59.9278644,99.8895414 44.3636871,97.7861844 43.0240263,97.5427801 C38.3641224,96.6896359 36.6025115,94.3121418 36.6025115,94.3121418 C36.6025115,94.3121418 38.4145596,93.8867991 38.3161456,93.8855697 C40.4197453,96.0897305 48.932558,96.3872246 53.0376528,94.887461 C66.0996537,90.1091158 69.1098925,81.6809362 69.6671619,79.9611253 C70.7669386,76.554695 71.6009974,69.1591395 62.5542886,70.947792 C53.43869,72.7475083 48.0296094,84.3706761 45.7267213,87.474695 C45.3798119,87.9430638 41.5207521,86.070818 41.822145,82.4652388 C42.5836235,75.2516217 44.3440043,64.8712908 49.283158,52.9580047 C50.0790813,51.035357 51.8566846,49.2676028 54.9456546,50.081409 C57.1476683,50.6567281 56.3455941,51.5111017 56.3455941,51.5111017 C51.5060846,58.6005579 48.5622753,69.4222128 47.1291211,79.3612199 L47.1291211,79.7619764" id="Fill-8" fill="#FFFFFF"></path>
                    <path d="M92.2815966,36.9946194 C92.2815966,36.9946194 95.3545744,36.3012861 93.624948,36.8151395 C42.0695333,50.6953286 21.535448,48.5919716 17.12773,44.9851631 C9.16726598,38.4673381 23.7374617,31.2635556 38.5635338,32.1658723 C38.5635338,32.1658723 37.4612968,33.4652577 37.4108596,34.8691348 C34.9578902,35.1186856 23.3364245,35.6706478 23.9416708,41.0808605 C24.8520005,49.2656359 79.1076498,40.0801986 92.2815966,36.9946194" id="Fill-10" fill="#BFD492"></path>
                </g>
            </g>
        </g>
    </g>
</svg>