<svg width="135" height="32" viewBox="0 0 135 32" fill="none" xmlns="http://www.w3.org/2000/svg">
<path d="M19.251 9.4215C19.251 6.37553 21.7201 3.90698 24.7655 3.90698H37.6251V22.9323C37.6251 25.9782 35.1643 28.4474 32.119 28.4474H24.7655C24.7655 28.4474 20.2973 28.2141 19.251 32V9.4215Z" fill="#41454F"/>
<path d="M37.6252 22.536C36.1748 20.7659 35.3036 18.503 35.3036 16.0363C35.3036 13.5689 36.1748 11.3061 37.6252 9.53664V7.87515C35.4996 9.94437 34.1787 12.8356 34.1787 16.0363C34.1787 19.1758 35.4505 22.0179 37.5059 24.0781C37.5832 23.7082 37.6252 23.3256 37.6252 22.9323V22.536Z" fill="#5A6065"/>
<path d="M28.9283 5.69859C29.6862 6.59559 30.7733 6.2748 32.0307 6.83662C32.9295 7.23896 32.9259 8.09518 33.4913 9.05994C33.7869 9.5624 34.167 9.99411 34.5802 10.3815C34.7073 10.1362 34.8416 9.89518 34.9843 9.65954C34.1077 8.54608 34.1053 7.13103 32.8509 6.24842C32.3299 5.88086 31.8574 5.8329 31.0563 5.33283C32.4876 5.63443 33.6376 5.48153 34.7313 6.44808C35.3141 6.96374 35.5527 7.7636 35.961 8.27326C36.1541 8.03522 36.355 7.80498 36.5648 7.58253C35.8717 6.44329 35.3261 5.10078 34.1904 4.55575C33.1885 4.07427 31.7045 4.81837 30.4489 4.35189C30.2247 4.26854 30.055 4.10905 29.9099 3.90698H28.0361C28.2598 4.52817 28.4756 5.16254 28.9283 5.69859Z" fill="#5A6065"/>
<path d="M29.5264 15.5938L31.1651 14.65C31.9356 14.7244 32.5957 15.2256 33.2229 15.4019C33.2385 15.0931 33.2655 14.7867 33.3038 14.4845C32.0777 13.9725 30.8503 13.211 29.6157 13.437C28.5214 13.6373 27.7587 15.1111 26.4684 15.4721C25.623 15.7077 24.7673 14.6878 23.7049 14.5751C22.2238 14.4168 21.3646 15.3431 20.0029 16.0363C20.9635 15.9571 21.3826 15.6795 22.0308 15.6675C23.6689 15.6363 24.5203 17.0838 26.0295 17.4555C27.1705 17.7355 27.8607 16.8373 29.2092 16.5519C30.1727 16.3499 30.6728 17.0436 31.6975 17.4915C32.23 17.7241 32.7882 17.8495 33.3476 17.9208C33.3062 17.6492 33.2745 17.3746 33.2511 17.0976C31.8924 16.7114 31.0583 15.5704 29.5264 15.5938Z" fill="#5A6065"/>
<path d="M21.2256 23.9462L34.1961 20.8954C33.9083 20.2221 33.6787 19.5188 33.5132 18.7903L21.2256 23.9462Z" fill="#5A6065"/>
<path d="M32.3297 25.1082C31.8213 25.4896 31.6282 25.9255 30.9063 26.5323C31.6348 25.2647 31.8453 24.1243 33.102 23.382C33.7676 22.9899 34.5956 23.0066 35.206 22.7812C35.0387 22.5246 34.8804 22.2613 34.7317 21.9921C33.439 22.2973 32 22.4035 31.1347 23.3106C30.3679 24.1147 30.6167 25.7564 29.7856 26.8075C29.24 27.4946 27.9479 27.1733 27.0221 27.7069C26.6581 27.9162 26.3847 28.1656 26.1641 28.4474H30.992C31.7086 27.9138 31.8417 26.9526 32.6373 26.07C33.2969 25.3397 34.1106 25.6077 35.2024 25.3679C35.7708 25.2426 36.2973 25.0159 36.7932 24.7431C36.5977 24.5464 36.4094 24.3444 36.2277 24.1351C34.9008 24.622 33.5559 24.1903 32.3297 25.1082Z" fill="#5A6065"/>
<path d="M28.0459 9.72971V10.9877L33.5172 13.2835C33.6833 12.555 33.9148 11.8511 34.2038 11.1783L28.0459 9.72971Z" fill="#5A6065"/>
<path d="M87.2676 3.90219H93.7552V5.81132H89.7415V8.25408H93.7678V10.1644H89.7415V12.9196H93.7654V14.8293H87.2676V3.90219Z" fill="#41454F"/>
<path d="M50.6084 3.90219H53.1765V11.2755C53.1765 12.3715 53.583 13.0443 54.6167 13.0443C55.6498 13.0443 56.0564 12.3715 56.0564 11.2755V3.90219H58.6238V10.8683C58.6238 13.5779 57.0745 15.0176 54.6167 15.0176C52.1584 15.0176 50.6084 13.5779 50.6084 10.8683V3.90219Z" fill="#41454F"/>
<path d="M61.0029 3.90219H64.0087L67.1872 11.4793H67.2184V3.90219H69.4729V14.8293H66.4359L63.2886 6.92297H63.2574V14.8293H61.0029V3.90219Z" fill="#41454F"/>
<path d="M74.5294 3.90219H71.9619V14.8293H74.5294V3.90219Z" fill="#41454F"/>
<path d="M76.1572 3.90219H78.9136L80.8389 11.8709H80.8701L82.8428 3.90219H85.4726L82.1688 14.8293H79.4143L76.1572 3.90219Z" fill="#41454F"/>
<path d="M98.502 8.56647H99.3007C100.288 8.56647 100.804 7.90931 100.804 7.12744C100.804 6.67294 100.663 5.74896 99.2851 5.74896H98.502V8.56647ZM96.0293 3.90219H100.037C101.837 3.90219 103.372 4.70026 103.372 6.71971C103.372 7.1736 103.308 8.9742 101.195 9.39692V9.4281C101.994 9.52223 102.308 9.95994 102.714 11.2605L103.841 14.8293H101.148L100.303 11.902C99.8805 10.4144 99.5364 10.4144 98.5968 10.4144V14.8293H96.0293V3.90219Z" fill="#41454F"/>
<path d="M111.73 6.12492C111.121 5.81133 110.26 5.56129 109.571 5.56129C108.741 5.56129 108.115 5.93664 108.115 6.7509C108.115 8.73917 112.42 7.81519 112.42 11.6982C112.42 13.7656 110.776 15.0176 108.6 15.0176C107.269 15.0176 106.127 14.7046 105.657 14.5637L105.797 12.4339C106.565 12.7319 107.238 13.1072 108.193 13.1072C109.007 13.1072 109.789 12.7001 109.789 11.8079C109.789 9.69433 105.484 10.7274 105.484 6.83005C105.484 6.50027 105.61 3.71393 109.273 3.71393C110.275 3.71393 110.902 3.88601 111.841 4.08988L111.73 6.12492Z" fill="#41454F"/>
<path d="M117.058 3.90219H114.491V14.8293H117.058V3.90219Z" fill="#41454F"/>
<path d="M121.193 5.87427H118.812V3.90219H126.139V5.87427H123.759V14.8293H121.193V5.87427Z" fill="#41454F"/>
<path d="M127.725 3.90219H134.212V5.81132H130.198V8.25408H134.225V10.1644H130.198V12.9196H134.222V14.8293H127.725V3.90219Z" fill="#41454F"/>
<path d="M53.1759 26.537H53.9907C55.8537 26.537 56.6829 25.0656 56.6829 23.0774C56.6829 20.8229 55.8219 19.43 53.8336 19.43H53.1759V26.537ZM50.6084 17.5191H54.4908C56.9492 17.5191 59.3763 18.9599 59.3763 23.0774C59.3763 26.8506 56.918 28.4474 54.1622 28.4474H50.6084V17.5191Z" fill="#4EB848"/>
<path d="M61.0039 17.5191H67.3135V19.43H63.4773V21.8716H67.1252V23.7819H63.4773V26.537H67.5012V28.4474H61.0039V17.5191Z" fill="#4EB848"/>
<path d="M79.4395 17.5191H82.4452L85.6231 25.0968H85.6549V17.5191H87.9088V28.4474H84.8718L81.7257 20.5411H81.6939V28.4474H79.4395V17.5191Z" fill="#41454F"/>
<path d="M94.9032 19.6177H94.872L93.5727 24.1572H96.0304L94.9032 19.6177ZM96.5317 26.0052H93.1032L92.3513 28.4474H89.8779L93.5103 17.5191H96.329L99.8343 28.4474H97.205L96.5317 26.0052Z" fill="#41454F"/>
<path d="M110.776 19.8053H110.743L108.285 28.4474H106.595L104.23 19.8053H104.198V28.4474H101.851V17.5191H105.717L107.487 24.5494H107.518L109.428 17.5191H113.123V28.4474H110.776V19.8053Z" fill="#41454F"/>
<path d="M115.717 17.5191H118.284V24.8929C118.284 25.9896 118.691 26.6624 119.725 26.6624C120.758 26.6624 121.165 25.9896 121.165 24.8929V17.5191H123.732V24.487C123.732 27.1942 122.183 28.635 119.725 28.635C117.266 28.635 115.717 27.1942 115.717 24.487V17.5191Z" fill="#41454F"/>
<path d="M128.884 22.1846H129.683C130.669 22.1846 131.185 21.5274 131.185 20.7443C131.185 20.2904 131.044 19.367 129.667 19.367H128.884V22.1846ZM126.41 17.5191H130.419C132.219 17.5191 133.753 18.3177 133.753 20.3378C133.753 20.7917 133.69 22.5923 131.577 23.015V23.0462C132.376 23.1397 132.689 23.5792 133.096 24.8774L134.223 28.4474H131.53L130.685 25.5195C130.262 24.0325 129.918 24.0325 128.978 24.0325V28.4474H126.41V17.5191Z" fill="#41454F"/>
<path d="M134.225 0H127.733V1.9511H134.225V0Z" fill="#4EB848"/>
<path d="M12.859 3.90637H0V22.9323C0 25.9782 2.46016 28.4474 5.50552 28.4474H12.859C12.859 28.4474 17.3272 28.2141 18.3735 32V24.3275C17.0922 25.0231 15.6178 25.4158 14.0594 25.4158C9.21644 25.4158 5.20452 21.7912 5.20452 16.8613V10.5601C5.20452 9.11869 6.12131 8.30563 7.35708 8.29604H9.59419V16.6293C9.59419 19.2969 11.3048 21.4141 14.0594 21.4141C16.2959 21.4141 17.9274 19.8101 18.3735 17.7679V9.42149C18.3735 6.37552 15.9044 3.90637 12.859 3.90637Z" fill="#4EB848"/>
<path fill-rule="evenodd" clip-rule="evenodd" d="M23.5651 8.29608C22.0067 8.29608 20.5323 8.68942 19.251 9.38495V15.9446C19.6971 13.9023 21.3286 12.2984 23.5651 12.2984C26.3197 12.2984 28.0303 14.4156 28.0303 17.0832V25.4158H30.2674C31.5032 25.4068 32.42 24.5932 32.42 23.1524V16.8512C32.42 11.9213 28.4081 8.29608 23.5651 8.29608Z" fill="url(#paint0_linear_393_3746)"/>
<path fill-rule="evenodd" clip-rule="evenodd" d="M14.059 25.4158C15.6173 25.4158 17.0918 25.0231 18.3731 24.3276V17.768C17.927 19.8102 16.2955 21.4141 14.059 21.4141C11.3044 21.4141 9.59377 19.2969 9.59377 16.6293V8.29608H7.35666C6.12089 8.30568 5.2041 9.11873 5.2041 10.5602V16.8614C5.2041 21.7913 9.21602 25.4158 14.059 25.4158Z" fill="url(#paint1_linear_393_3746)"/>
<defs>
<linearGradient id="paint0_linear_393_3746" x1="19.2513" y1="16.8558" x2="32.4204" y2="16.8558" gradientUnits="userSpaceOnUse">
<stop stop-color="#8A8C8E"/>
<stop offset="0.2" stop-color="#EEEFF0"/>
<stop offset="0.3" stop-color="white"/>
<stop offset="1" stop-color="white"/>
</linearGradient>
<linearGradient id="paint1_linear_393_3746" x1="5.20426" y1="16.8557" x2="18.3733" y2="16.8557" gradientUnits="userSpaceOnUse">
<stop stop-color="white"/>
<stop offset="0.7" stop-color="white"/>
<stop offset="0.8" stop-color="#EEEFF0"/>
<stop offset="1" stop-color="#8A8C8E"/>
</linearGradient>
</defs>
</svg>
